<svg xmlns="http://www.w3.org/2000/svg" width="237" height="27" fill="none" fill-rule="evenodd" xmlns:v="https://vecta.io/nano"><path d="M75.751 23.86c0 .507-.255.76-.766.76h-8.997c-.217 0-.394-.063-.53-.19s-.204-.306-.204-.537c0-.198.046-.358.139-.479s.236-.22.432-.297l.701-.215a.73.73 0 0 0 .407-.314c.098-.154.147-.375.147-.661v-9.554c0-.154-.038-.284-.114-.388s-.217-.201-.424-.289l-.945-.314c-.25-.121-.429-.251-.538-.389s-.163-.306-.163-.504.068-.361.204-.488l.053-.045c.13-.097.3-.146.509-.146h1.43l-.011-.097c-.031-.193-.107-.379-.229-.556l-.554-.802c-.206-.298-.391-.653-.554-1.066S65.5 6.366 65.5 5.76c0-1.444.489-2.598 1.467-3.463S69.335 1 71.139 1c1.163 0 2.127.187 2.893.562s1.339.873 1.72 1.496a3.84 3.84 0 0 1 .57 2.041c0 .871-.225 1.523-.676 1.959s-1.029.653-1.736.653c-.782 0-1.413-.253-1.891-.76s-.717-1.179-.717-2.017V3.463c0-.386-.076-.669-.228-.851s-.386-.273-.701-.273c-.402 0-.706.138-.913.413s-.31.672-.31 1.19c0 .529.122 1.025.367 1.488s.546.895.905 1.298l1.076 1.157c.358.369.66.733.904 1.091l.07.107c.132.215.22.428.264.641l.015.087h2.414c.25 0 .443.052.579.157s.204.267.204.488c0 .331-.141.601-.424.81s-.728.314-1.336.314H73.03v10.298c0 .309.046.546.139.711s.242.264.448.297l1.402.215c.25.033.435.113.554.24s.179.3.179.521zm-32.092.38c-.978.474-2.119.711-3.423.711-1.38 0-2.616-.292-3.708-.876a6.4 6.4 0 0 1-2.583-2.537c-.63-1.107-.945-2.455-.945-4.041 0-1.532.329-2.901.986-4.107a7.38 7.38 0 0 1 2.746-2.86c1.174-.7 2.543-1.05 4.107-1.05 1.337 0 2.464.198 3.382.595s1.619.934 2.103 1.612a3.82 3.82 0 0 1 .725 2.273c0 .881-.253 1.573-.758 2.074s-1.193.752-2.062.752c-.891 0-1.567-.256-2.029-.769s-.693-1.215-.693-2.107v-1.058c0-.54-.098-.948-.293-1.223s-.473-.413-.831-.413-.682.146-.97.438-.511.73-.668 1.314-.236 1.306-.236 2.165c0 1.234.182 2.27.546 3.108s.861 1.466 1.491 1.884 1.347.628 2.151.628 1.478-.118 2.021-.355.962-.636 1.255-1.198c.163-.154.291-.253.383-.297a.62.62 0 0 1 .269-.066c.109.011.198.063.269.157s.101.24.09.438c-.087 1.08-.418 2.033-.994 2.86s-1.353 1.476-2.331 1.95zm16.568-.331c-1.222.672-2.643 1.008-4.262 1.008-1.575 0-2.958-.328-4.148-.983s-2.116-1.562-2.779-2.719-.994-2.496-.994-4.017c0-1.454.348-2.763 1.043-3.926s1.657-2.085 2.885-2.769 2.64-1.025 4.238-1.025c1.586 0 2.972.331 4.156.992s2.108 1.576 2.771 2.744.994 2.518.994 4.05c0 1.454-.345 2.757-1.035 3.909s-1.646 2.063-2.869 2.735zm-3.023-.711c-.337.066-.666-.083-.986-.446s-.625-.975-.913-1.835-.562-1.989-.823-3.389c-.25-1.399-.391-2.551-.424-3.454s.033-1.587.196-2.05.413-.733.75-.81c.337-.066.666.083.986.446s.627.975.921 1.835.57 1.989.831 3.388.405 2.554.432 3.463-.043 1.595-.212 2.058-.421.727-.758.793zm29.158 1.422c.511 0 .766-.253.766-.76 0-.22-.06-.394-.179-.521s-.304-.207-.554-.24l-1.402-.215c-.207-.033-.356-.132-.448-.297s-.139-.402-.139-.711V11.579h1.157c.609 0 1.054-.105 1.337-.314s.424-.479.424-.81c0-.22-.068-.383-.204-.488s-.329-.157-.579-.157h-2.414l-.015-.087c-.044-.213-.132-.426-.264-.641l-.07-.107c-.244-.358-.546-.722-.905-1.091l-1.076-1.157c-.358-.402-.66-.835-.904-1.298s-.367-.959-.367-1.488c0-.518.103-.915.31-1.19s.511-.413.913-.413c.315 0 .549.091.701.273s.228.466.228.851v1.471c0 .837.239 1.51.717 2.017s1.108.76 1.891.76c.706 0 1.285-.218 1.736-.653s.676-1.088.676-1.959a3.84 3.84 0 0 0-.571-2.041c-.38-.623-.953-1.121-1.719-1.496S83.678 1 82.515 1c-1.804 0-3.195.433-4.172 1.298s-1.467 2.019-1.467 3.463c0 .606.081 1.116.245 1.529s.348.769.554 1.066l.554.802c.122.178.199.363.229.556l.011.097h-1.43c-.209 0-.379.049-.509.146l-.053.045c-.136.127-.204.289-.204.488s.054.366.163.504.288.267.538.389l.945.314c.206.088.348.185.424.289s.114.234.114.388v9.554c0 .287-.049.507-.147.661a.73.73 0 0 1-.407.314l-.701.215c-.196.077-.34.176-.432.297a.77.77 0 0 0-.138.479c0 .231.068.41.204.537s.312.19.53.19h8.997zm12.762-.479c-1.054.54-2.271.81-3.651.81-1.521 0-2.858-.317-4.01-.95a6.82 6.82 0 0 1-2.697-2.661c-.647-1.14-.97-2.46-.97-3.959 0-1.576.312-2.956.937-4.14s1.529-2.107 2.714-2.769 2.608-.992 4.27-.992c1.413 0 2.63.278 3.651.835s1.807 1.311 2.355 2.265.823 2.014.823 3.182c0 .507-.135.906-.407 1.198l-.065.065c-.268.249-.637.373-1.109.373h-7.45l.016.076c.198.908.535 1.634 1.013 2.18.815.931 1.901 1.397 3.26 1.397.869 0 1.638-.198 2.307-.595s1.116-.948 1.344-1.653c.131-.143.248-.24.351-.289a.64.64 0 0 1 .269-.074c.108 0 .201.044.277.132s.114.237.114.446a5.31 5.31 0 0 1-.88 2.967c-.587.898-1.407 1.617-2.461 2.157zm-5.779-8.069l-.023-.791c0-1.036.076-1.851.228-2.446s.348-1.017.587-1.264.505-.372.799-.372c.38 0 .736.325 1.067.975s.497 1.73.497 3.24c0 .463-.206.694-.619.694h-2.534l-.002-.036zm21.36 8.069c-1.054.54-2.271.81-3.651.81-1.521 0-2.857-.317-4.009-.95s-2.051-1.521-2.698-2.661-.969-2.46-.969-3.959c0-1.576.312-2.956.937-4.14a6.68 6.68 0 0 1 2.714-2.769c1.184-.661 2.607-.992 4.27-.992 1.412 0 2.629.278 3.651.835s1.806 1.311 2.355 2.265.823 2.014.823 3.182c0 .507-.136.906-.407 1.198l-.065.065c-.268.249-.638.373-1.109.373h-7.451l.016.076c.198.908.536 1.634 1.013 2.18.815.931 1.902 1.397 3.26 1.397.869 0 1.638-.198 2.306-.595s1.117-.948 1.345-1.653c.13-.143.247-.24.35-.289s.193-.074.269-.074c.109 0 .201.044.277.132s.114.237.114.446a5.31 5.31 0 0 1-.88 2.967c-.586.898-1.407 1.617-2.461 2.157zm-5.779-8.069l-.023-.791c0-1.036.076-1.851.228-2.446s.348-1.017.587-1.264.505-.372.799-.372c.38 0 .736.325 1.067.975s.497 1.73.497 3.24c0 .463-.206.694-.619.694h-2.534l-.002-.036zm19.674 8.342c-.136.138-.334.207-.595.207h-8.149c-.239 0-.427-.066-.563-.198s-.203-.314-.203-.546c0-.176.04-.322.122-.438s.193-.223.334-.322l.375-.149a.55.55 0 0 0 .293-.314c.055-.143.082-.38.082-.711v-8.397c0-.264-.03-.455-.09-.57a.62.62 0 0 0-.301-.273l-.424-.05a1.04 1.04 0 0 1-.334-.281c-.071-.099-.106-.226-.106-.38 0-.176.054-.333.163-.471s.293-.256.554-.355l4.629-1.339c.271-.11.499-.187.684-.231a2.09 2.09 0 0 1 .473-.066c.185 0 .323.066.415.198l.03.048c.076.138.129.359.158.663l.124 2.568.028-.095.182-.515c.397-.986.921-1.719 1.573-2.198s1.364-.719 2.135-.719c.934 0 1.652.314 2.151.942s.75 1.581.75 2.86c0 1.267-.261 2.198-.782 2.793s-1.195.892-2.021.892c-.804 0-1.399-.204-1.785-.611s-.589-.986-.611-1.736l-.016-.661c-.011-.254-.06-.452-.147-.595s-.228-.215-.424-.215-.367.102-.513.306-.258.515-.334.934-.114.953-.114 1.603v5.818c0 .309.048.554.146.736s.25.295.457.339l1.222.248c.228.033.391.118.489.256a.82.82 0 0 1 .147.488c0 .22-.068.399-.204.537zm13.031.504c1.619 0 3.039-.336 4.262-1.008s2.178-1.584 2.868-2.735 1.035-2.455 1.035-3.909c0-1.532-.331-2.882-.994-4.05s-1.586-2.083-2.771-2.744-2.569-.992-4.156-.992c-1.597 0-3.01.342-4.238 1.025s-2.189 1.606-2.884 2.769-1.043 2.471-1.043 3.926c0 1.521.331 2.86.994 4.017s1.589 2.063 2.779 2.719 2.572.983 4.148.983zm.252-2.165c.321.364.65.512.986.446s.59-.331.758-.793.239-1.149.212-2.058-.171-2.063-.432-3.463-.538-2.529-.831-3.388-.6-1.471-.921-1.835-.649-.512-.986-.446c-.337.077-.587.347-.75.81s-.228 1.146-.195 2.05.174 2.055.423 3.454c.261 1.399.536 2.529.824 3.389s.592 1.471.912 1.835zm20.838 2.198c.913 0 1.663-.168 2.249-.504s1.024-.736 1.312-1.198.432-.887.432-1.273c0-.165-.035-.303-.106-.413s-.165-.165-.285-.165c-.054 0-.103.011-.147.033a.33.33 0 0 0-.114.099c-.054.198-.138.336-.252.413s-.237.116-.367.116c-.185 0-.323-.063-.416-.19s-.138-.295-.138-.504v-7.306c0-1.455-.492-2.581-1.475-3.38s-2.524-1.198-4.621-1.198c-1.63 0-2.991.204-4.083.612s-1.912.928-2.461 1.562-.823 1.281-.823 1.942c0 .705.204 1.242.611 1.612s.997.554 1.769.554c.945 0 1.689-.256 2.233-.769s.815-1.176.815-1.992v-1.256c0-.309.095-.548.285-.719a1.02 1.02 0 0 1 .709-.256c.304 0 .546.113.725.339s.269.532.269.917v4.818l-.087-.019c-.262-.051-.566-.08-.911-.087l-.175-.002c-2.337 0-4.078.397-5.224 1.19s-1.72 1.901-1.72 3.322c0 1.08.394 1.967 1.182 2.661s1.834 1.041 3.137 1.041a6.31 6.31 0 0 0 2.739-.603c.635-.302 1.152-.698 1.549-1.189l.023-.029.024.074c.125.357.354.677.688.96l.103.084c.603.468 1.454.702 2.551.702zm-5.615-3.116c.266.358.617.537 1.052.537l.093-.003a1.36 1.36 0 0 0 .538-.155l.053-.03v-4.242l-.081-.025c-.185-.05-.402-.074-.652-.074-.424 0-.764.198-1.019.595s-.383.981-.383 1.752c0 .738.133 1.287.399 1.645zM174.212 25c1.934 0 3.417-.446 4.449-1.339s1.549-2.11 1.549-3.653c0-.937-.174-1.758-.522-2.463s-.956-1.331-1.825-1.876-2.092-1.061-3.668-1.545c-.586-.187-1.04-.377-1.361-.57s-.54-.399-.66-.62-.179-.457-.179-.711c0-.375.136-.678.408-.909s.673-.347 1.206-.347c.739 0 1.437.248 2.094.744s1.383 1.344 2.176 2.546c.206.253.413.438.619.554s.402.151.587.107c.228-.066.369-.218.424-.455s.043-.576-.033-1.016l-.424-3.041c-.043-.32-.125-.545-.244-.678s-.277-.198-.473-.198c-.174 0-.391.061-.652.182l-.774.372c-.255.127-.448.19-.578.19-.12 0-.297-.066-.53-.198s-.562-.264-.986-.397-.973-.198-1.646-.198c-1.12 0-2.127.204-3.024.612s-1.603.989-2.119 1.744-.774 1.656-.774 2.703c0 .926.193 1.736.579 2.43s.975 1.289 1.768 1.785 1.793.898 2.999 1.207c.782.209 1.383.421 1.801.636s.706.449.864.703a1.56 1.56 0 0 1 .236.843c0 .408-.136.744-.407 1.008s-.685.397-1.239.397c-.521 0-1.019-.113-1.491-.339s-.959-.614-1.459-1.165-1.059-1.306-1.679-2.264c-.184-.254-.394-.43-.627-.529a.84.84 0 0 0-.709.017c-.228.088-.375.275-.44.562s-.049.639.049 1.058l.505 3.289c.076.331.185.551.326.661s.293.165.456.165c.185 0 .41-.061.677-.182l.798-.364c.266-.121.481-.182.644-.182s.378.061.644.182.614.242 1.043.364.97.182 1.622.182zm15.451-.62c-.717.38-1.565.57-2.543.57-1.651 0-2.893-.402-3.724-1.207s-1.247-2.072-1.247-3.802v-7.471c0-.231-.022-.408-.065-.529s-.152-.22-.326-.297l-.766-.248c-.185-.088-.304-.196-.359-.322s-.081-.284-.081-.471c0-.231.081-.421.244-.57a.86.86 0 0 1 .603-.223h.799c.098 0 .201-.039.31-.116s.255-.231.44-.463l3.015-2.529a2.83 2.83 0 0 1 .652-.603 1.21 1.21 0 0 1 .652-.207c.25 0 .445.077.587.231l.044.055c.112.155.168.379.168.673l-.001 2.959h3.407c.239 0 .424.052.554.157s.196.267.196.488c0 .309-.136.573-.408.793l-.06.046c-.274.19-.689.285-1.244.285h-2.445l.001 7.537c0 .826.138 1.438.415 1.835s.682.595 1.214.595c.229 0 .441-.05.636-.149s.372-.229.53-.388a4.42 4.42 0 0 0 .448-.537l.408-.595c.108-.044.203-.025.285.058s.117.251.106.504c-.076.893-.324 1.678-.742 2.355s-.986 1.207-1.703 1.587zm10.676.57c1.379 0 2.596-.27 3.65-.81s1.875-1.259 2.462-2.157a5.32 5.32 0 0 0 .88-2.967c0-.209-.038-.358-.114-.446s-.169-.132-.278-.132c-.076 0-.165.025-.268.074s-.22.146-.351.289c-.228.705-.676 1.256-1.345 1.653s-1.437.595-2.306.595c-1.358 0-2.445-.466-3.26-1.397-.477-.546-.815-1.272-1.013-2.18l-.016-.076h7.451c.472 0 .841-.124 1.109-.373l.065-.065c.271-.292.407-.692.407-1.198 0-1.168-.274-2.229-.823-3.182s-1.334-1.708-2.355-2.264-2.238-.835-3.651-.835c-1.662 0-3.086.331-4.27.992a6.68 6.68 0 0 0-2.714 2.769c-.625 1.185-.937 2.565-.937 4.14 0 1.499.323 2.818.97 3.959s1.545 2.028 2.697 2.661 2.488.95 4.01.95zm-2.152-9.669l.023.791.002.036h2.534c.413 0 .619-.231.619-.694 0-1.51-.165-2.589-.497-3.24s-.687-.975-1.067-.975c-.294 0-.56.124-.799.372s-.435.669-.587 1.265-.228 1.411-.228 2.446zm19.102 9.339c.261 0 .459-.069.595-.207s.204-.317.204-.537a.82.82 0 0 0-.147-.488c-.098-.138-.261-.223-.489-.256l-1.222-.248c-.207-.044-.359-.157-.457-.339s-.146-.427-.146-.736v-5.818c0-.65.038-1.184.114-1.603s.187-.73.334-.934.318-.306.513-.306.337.072.424.215.136.342.147.595l.016.661c.022.749.225 1.328.611 1.736s.981.611 1.785.611c.826 0 1.499-.297 2.021-.892s.782-1.526.782-2.793c0-1.278-.25-2.231-.749-2.86s-1.217-.942-2.152-.942c-.771 0-1.483.24-2.135.719s-1.176 1.212-1.573 2.198l-.182.515-.028.095-.124-2.569c-.029-.304-.081-.525-.158-.663l-.029-.048c-.093-.132-.231-.198-.416-.198-.13 0-.288.022-.473.066a4.95 4.95 0 0 0-.684.231l-4.629 1.339c-.261.099-.446.218-.554.355s-.163.295-.163.471c0 .154.035.281.106.38a1.04 1.04 0 0 0 .334.281l.424.05a.62.62 0 0 1 .301.273c.06.116.09.306.09.57v8.397c0 .331-.027.567-.082.711a.55.55 0 0 1-.293.314l-.375.149c-.141.099-.253.207-.334.322s-.122.262-.122.438c0 .231.068.413.203.546s.324.198.563.198h8.149zm17.163-.959c-1.033.892-2.516 1.339-4.45 1.339-.652 0-1.192-.061-1.622-.182s-.777-.242-1.043-.364-.481-.182-.644-.182-.377.061-.643.182l-.799.364c-.266.121-.492.182-.676.182a.73.73 0 0 1-.457-.165c-.141-.11-.25-.331-.326-.661l-.505-3.289c-.098-.419-.114-.771-.049-1.058s.212-.474.44-.562a.84.84 0 0 1 .709-.017c.234.099.443.275.628.529.619.959 1.179 1.713 1.678 2.264s.987.939 1.459 1.165a3.42 3.42 0 0 0 1.492.339c.554 0 .967-.132 1.238-.397s.408-.601.408-1.008a1.56 1.56 0 0 0-.237-.843c-.157-.253-.445-.488-.863-.703s-1.019-.427-1.801-.636c-1.207-.309-2.206-.711-2.999-1.207s-1.383-1.091-1.769-1.785-.578-1.504-.578-2.43c0-1.047.258-1.948.774-2.703s1.222-1.336 2.119-1.744 1.904-.612 3.023-.612c.674 0 1.222.066 1.646.198s.753.264.986.397.41.198.53.198c.13 0 .323-.063.579-.19l.774-.372c.26-.121.478-.182.652-.182.195 0 .353.066.472.198s.201.358.245.678l.424 3.041c.076.441.086.78.032 1.016a.57.57 0 0 1-.424.455c-.184.044-.38.008-.586-.107s-.413-.3-.62-.554c-.793-1.201-1.518-2.05-2.176-2.546s-1.355-.744-2.094-.744c-.532 0-.934.116-1.206.347s-.408.534-.408.909c0 .253.06.49.18.711s.339.427.66.62.774.383 1.361.57c1.575.485 2.798 1 3.667 1.545s1.478 1.171 1.825 1.876.522 1.526.522 2.463c0 1.543-.516 2.76-1.548 3.653z" fill="#333d4b"/><path d="M14.489 5.003C10.975 1.491 5.766.986 2.877 3.878S.492 11.978 4 15.491c.936.936 2.014 1.652 3.153 2.165.373-2.171 1.444-4.257 3.07-5.97-.538-.192-1.09-.354-1.666-.511-3.411-.936-5.106-3.782-5.502-7.118.328.394.626.807.923 1.219.577.799 1.15 1.594 1.928 2.234 1.21.997 2.539 1.381 3.992 1.802l.169.049c.689.199 1.287.495 1.836.84 1.443-1.055 3.07-1.757 4.75-2.046-.512-1.139-1.229-2.216-2.165-3.152zM8.546 18.489c.223-2.174 1.276-4.299 2.964-5.987 3.514-3.512 8.724-4.019 11.613-1.125s2.386 8.1-1.126 11.613c-1.687 1.688-3.813 2.741-5.986 2.965a8.76 8.76 0 0 1-.857.044c-1.869 0-3.538-.655-4.768-1.886-1.416-1.415-2.07-3.413-1.839-5.625zm5.14 1.784c1.152-.879 2.398-1.227 3.754-1.598 3.411-.936 5.104-3.782 5.502-7.118-.325.392-.621.802-.916 1.211-.579.802-1.154 1.599-1.936 2.242-1.214.998-2.545 1.384-4.005 1.806l-.156.045c-3.337.969-4.987 3.791-5.368 7.074.329-.395.63-.805.93-1.213.65-.886 1.293-1.761 2.195-2.45z" fill="#0e8784"/></svg>